<?xml version="1.0" encoding="utf-8"?>
<svg xmlns="http://www.w3.org/2000/svg" xmlns:xlink="http://www.w3.org/1999/xlink" style="margin: auto; background: none; display: block; shape-rendering: auto;" width="32px" height="32px" viewBox="0 0 100 100" preserveAspectRatio="xMidYMid">
<g transform="rotate(0 50 50)">
  <rect x="41.5" y="5.5" rx="8.5" ry="9.5" width="17" height="19" fill="#2ca01c">
    <animate attributeName="opacity" values="1;0" keyTimes="0;1" dur="0.3861003861003861s" begin="-0.33783783783783783s" repeatCount="indefinite"></animate>
  </rect>
</g><g transform="rotate(45 50 50)">
  <rect x="41.5" y="5.5" rx="8.5" ry="9.5" width="17" height="19" fill="#2ca01c">
    <animate attributeName="opacity" values="1;0" keyTimes="0;1" dur="0.3861003861003861s" begin="-0.2895752895752896s" repeatCount="indefinite"></animate>
  </rect>
</g><g transform="rotate(90 50 50)">
  <rect x="41.5" y="5.5" rx="8.5" ry="9.5" width="17" height="19" fill="#53b046">
    <animate attributeName="opacity" values="1;0" keyTimes="0;1" dur="0.3861003861003861s" begin="-0.24131274131274133s" repeatCount="indefinite"></animate>
  </rect>
</g><g transform="rotate(135 50 50)">
  <rect x="41.5" y="5.5" rx="8.5" ry="9.5" width="17" height="19" fill="#7cc273">
    <animate attributeName="opacity" values="1;0" keyTimes="0;1" dur="0.3861003861003861s" begin="-0.19305019305019305s" repeatCount="indefinite"></animate>
  </rect>
</g><g transform="rotate(180 50 50)">
  <rect x="41.5" y="5.5" rx="8.5" ry="9.5" width="17" height="19" fill="#a7d5a0">
    <animate attributeName="opacity" values="1;0" keyTimes="0;1" dur="0.3861003861003861s" begin="-0.1447876447876448s" repeatCount="indefinite"></animate>
  </rect>
</g><g transform="rotate(225 50 50)">
  <rect x="41.5" y="5.5" rx="8.5" ry="9.5" width="17" height="19" fill="#2ca01c">
    <animate attributeName="opacity" values="1;0" keyTimes="0;1" dur="0.3861003861003861s" begin="-0.09652509652509653s" repeatCount="indefinite"></animate>
  </rect>
</g><g transform="rotate(270 50 50)">
  <rect x="41.5" y="5.5" rx="8.5" ry="9.5" width="17" height="19" fill="#2ca01c">
    <animate attributeName="opacity" values="1;0" keyTimes="0;1" dur="0.3861003861003861s" begin="-0.04826254826254826s" repeatCount="indefinite"></animate>
  </rect>
</g><g transform="rotate(315 50 50)">
  <rect x="41.5" y="5.5" rx="8.5" ry="9.5" width="17" height="19" fill="#53b046">
    <animate attributeName="opacity" values="1;0" keyTimes="0;1" dur="0.3861003861003861s" begin="0s" repeatCount="indefinite"></animate>
  </rect>
</g>
<!-- [ldio] generated by https://loading.io/ --></svg>