<?xml version="1.0" encoding="utf-8"?>
<svg xmlns="http://www.w3.org/2000/svg" xmlns:xlink="http://www.w3.org/1999/xlink" style="margin: auto; background: none; display: block; shape-rendering: auto;" width="32px" height="32px" viewBox="0 0 100 100" preserveAspectRatio="xMidYMid">
<g transform="rotate(0 50 50)">
  <rect x="45" y="28" rx="5" ry="5" width="10" height="10" fill="#2ca01c">
    <animate attributeName="opacity" values="1;0" keyTimes="0;1" dur="0.5235602094240838s" begin="-0.46538685282140774s" repeatCount="indefinite"></animate>
  </rect>
</g><g transform="rotate(40 50 50)">
  <rect x="45" y="28" rx="5" ry="5" width="10" height="10" fill="#2ca01c">
    <animate attributeName="opacity" values="1;0" keyTimes="0;1" dur="0.5235602094240838s" begin="-0.40721349621873176s" repeatCount="indefinite"></animate>
  </rect>
</g><g transform="rotate(80 50 50)">
  <rect x="45" y="28" rx="5" ry="5" width="10" height="10" fill="#53b046">
    <animate attributeName="opacity" values="1;0" keyTimes="0;1" dur="0.5235602094240838s" begin="-0.34904013961605584s" repeatCount="indefinite"></animate>
  </rect>
</g><g transform="rotate(120 50 50)">
  <rect x="45" y="28" rx="5" ry="5" width="10" height="10" fill="#7cc273">
    <animate attributeName="opacity" values="1;0" keyTimes="0;1" dur="0.5235602094240838s" begin="-0.29086678301337987s" repeatCount="indefinite"></animate>
  </rect>
</g><g transform="rotate(160 50 50)">
  <rect x="45" y="28" rx="5" ry="5" width="10" height="10" fill="#a7d5a0">
    <animate attributeName="opacity" values="1;0" keyTimes="0;1" dur="0.5235602094240838s" begin="-0.23269342641070387s" repeatCount="indefinite"></animate>
  </rect>
</g><g transform="rotate(200 50 50)">
  <rect x="45" y="28" rx="5" ry="5" width="10" height="10" fill="#2ca01c">
    <animate attributeName="opacity" values="1;0" keyTimes="0;1" dur="0.5235602094240838s" begin="-0.17452006980802792s" repeatCount="indefinite"></animate>
  </rect>
</g><g transform="rotate(240 50 50)">
  <rect x="45" y="28" rx="5" ry="5" width="10" height="10" fill="#2ca01c">
    <animate attributeName="opacity" values="1;0" keyTimes="0;1" dur="0.5235602094240838s" begin="-0.11634671320535193s" repeatCount="indefinite"></animate>
  </rect>
</g><g transform="rotate(280 50 50)">
  <rect x="45" y="28" rx="5" ry="5" width="10" height="10" fill="#53b046">
    <animate attributeName="opacity" values="1;0" keyTimes="0;1" dur="0.5235602094240838s" begin="-0.05817335660267597s" repeatCount="indefinite"></animate>
  </rect>
</g><g transform="rotate(320 50 50)">
  <rect x="45" y="28" rx="5" ry="5" width="10" height="10" fill="#7cc273">
    <animate attributeName="opacity" values="1;0" keyTimes="0;1" dur="0.5235602094240838s" begin="0s" repeatCount="indefinite"></animate>
  </rect>
</g>
<!-- [ldio] generated by https://loading.io/ --></svg>